<?xml version="1.0" encoding="UTF-8" standalone="no"?>
<!-- Created with Inkscape (http://www.inkscape.org/) -->

<svg
   xmlns:dc="http://purl.org/dc/elements/1.1/"
   xmlns:cc="http://creativecommons.org/ns#"
   xmlns:rdf="http://www.w3.org/1999/02/22-rdf-syntax-ns#"
   xmlns:svg="http://www.w3.org/2000/svg"
   xmlns="http://www.w3.org/2000/svg"
   xmlns:sodipodi="http://sodipodi.sourceforge.net/DTD/sodipodi-0.dtd"
   xmlns:inkscape="http://www.inkscape.org/namespaces/inkscape"
   width="512"
   height="512"
   viewBox="0 0 135.46666 135.46667"
   version="1.1"
   id="svg9927"
   inkscape:version="0.92.0 r15299"
   sodipodi:docname="Virus.svg"
   inkscape:export-filename="C:\Users\zgcrowno\Documents\OrxProjects\Payload\data\texture\PNG\Virus.png"
   inkscape:export-xdpi="96"
   inkscape:export-ydpi="96">
  <defs
     id="defs9921" />
  <sodipodi:namedview
     id="base"
     pagecolor="#ffffff"
     bordercolor="#666666"
     borderopacity="1.0"
     inkscape:pageopacity="0.0"
     inkscape:pageshadow="2"
     inkscape:zoom="1.4"
     inkscape:cx="302.97332"
     inkscape:cy="263.54786"
     inkscape:document-units="mm"
     inkscape:current-layer="layer1"
     showgrid="true"
     inkscape:pagecheckerboard="true"
     units="px"
     inkscape:window-width="1920"
     inkscape:window-height="1001"
     inkscape:window-x="-9"
     inkscape:window-y="-9"
     inkscape:window-maximized="1">
    <inkscape:grid
       type="xygrid"
       id="grid10472"
       spacingx="4.2333333"
       spacingy="4.2333333"
       enabled="true" />
  </sodipodi:namedview>
  <metadata
     id="metadata9924">
    <rdf:RDF>
      <cc:Work
         rdf:about="">
        <dc:format>image/svg+xml</dc:format>
        <dc:type
           rdf:resource="http://purl.org/dc/dcmitype/StillImage" />
        <dc:title></dc:title>
      </cc:Work>
    </rdf:RDF>
  </metadata>
  <g
     inkscape:label="Layer 1"
     inkscape:groupmode="layer"
     id="layer1"
     transform="translate(0,-161.53332)">
    <circle
       style="fill:#000000;fill-opacity:1;stroke:none;stroke-width:10;stroke-miterlimit:4;stroke-dasharray:none;stroke-opacity:1"
       id="path10474"
       cx="67.73333"
       cy="229.26665"
       r="50.799999" />
    <path
       style="fill:#000000;fill-opacity:1;stroke:none;stroke-width:10;stroke-miterlimit:4;stroke-dasharray:none;stroke-opacity:1"
       d="m 68.920146,174.75304 c 0,7.01401 5.84229,12.18028 -1.17173,12.18028 -7.01402,0 -1.26622,-5.16627 -1.26622,-12.18028 0,-7.01402 -5.7478,-13.21972 1.26622,-13.21972 7.01402,0 1.17173,6.2057 1.17173,13.21972 z"
       id="path10482"
       inkscape:connector-curvature="0"
       sodipodi:nodetypes="sssss" />
    <path
       style="fill:#000000;fill-opacity:1;stroke:none;stroke-width:10;stroke-miterlimit:4;stroke-dasharray:none;stroke-opacity:1"
       d="m 68.920146,284.81971 c 0,7.01401 5.84229,12.18028 -1.17173,12.18028 -7.01402,0 -1.26622,-5.16627 -1.26622,-12.18028 0,-7.01402 -5.7478,-13.21972 1.26622,-13.21972 7.01402,0 1.17173,6.2057 1.17173,13.21972 z"
       id="path10482-0"
       inkscape:connector-curvature="0"
       sodipodi:nodetypes="sssss" />
    <path
       style="fill:#000000;fill-opacity:1;stroke:none;stroke-width:10;stroke-miterlimit:4;stroke-dasharray:none;stroke-opacity:1"
       d="m 122.24695,230.45347 c -7.01401,0 -12.18028,5.84229 -12.18028,-1.17173 0,-7.01402 5.16627,-1.26622 12.18028,-1.26622 7.01402,0 13.21972,-5.7478 13.21972,1.26622 0,7.01402 -6.2057,1.17173 -13.21972,1.17173 z"
       id="path10482-01"
       inkscape:connector-curvature="0"
       sodipodi:nodetypes="sssss" />
    <path
       style="fill:#000000;fill-opacity:1;stroke:none;stroke-width:10;stroke-miterlimit:4;stroke-dasharray:none;stroke-opacity:1"
       d="m 13.21972,228.07984 c 7.01401,0 12.18028,-5.84229 12.18028,1.17173 0,7.01402 -5.16627,1.26622 -12.18028,1.26622 C 6.2057,230.51779 0,236.26559 0,229.25157 c 0,-7.01402 6.2057,-1.17173 13.21972,-1.17173 z"
       id="path10482-019"
       inkscape:connector-curvature="0"
       sodipodi:nodetypes="sssss" />
    <path
       style="fill:#000000;fill-opacity:1;stroke:none;stroke-width:10;stroke-miterlimit:4;stroke-dasharray:none;stroke-opacity:1"
       d="m 25.4,186.93332 c 4.95965,4.95966 12.74388,4.48164 7.78422,9.4413 -4.95966,4.95966 -4.54846,-2.75775 -9.50811,-7.7174 -4.95966,-4.95967 -13.41206,-5.28345 -8.4524,-10.24311 4.95966,-4.95966 5.21663,3.55955 10.17629,8.51921 z"
       id="path10482-1"
       inkscape:connector-curvature="0"
       sodipodi:nodetypes="sssss" />
    <path
       style="fill:#000000;fill-opacity:1;stroke:none;stroke-width:10;stroke-miterlimit:4;stroke-dasharray:none;stroke-opacity:1"
       d="m 110.06667,186.93332 c -4.95965,4.95965 -4.48163,12.74388 -9.4413,7.78422 -4.959659,-4.95966 2.75776,-4.54846 7.71741,-9.50811 4.95966,-4.95966 5.28345,-13.41206 10.24311,-8.4524 4.95966,4.95966 -3.55956,5.21663 -8.51922,10.17629 z"
       id="path10482-9"
       inkscape:connector-curvature="0"
       sodipodi:nodetypes="sssss" />
    <path
       style="fill:#000000;fill-opacity:1;stroke:none;stroke-width:10;stroke-miterlimit:4;stroke-dasharray:none;stroke-opacity:1"
       d="m 25.4,271.59999 c 4.959654,-4.95965 4.481635,-12.74388 9.441297,-7.78422 4.959661,4.95966 -2.757752,4.54846 -7.717406,9.50811 -4.959661,4.95966 -5.283446,13.41206 -10.243107,8.4524 -4.959661,-4.95966 3.559555,-5.21663 8.519216,-10.17629 z"
       id="path10482-17"
       inkscape:connector-curvature="0"
       sodipodi:nodetypes="sssss" />
    <path
       style="fill:#000000;fill-opacity:1;stroke:none;stroke-width:10;stroke-miterlimit:4;stroke-dasharray:none;stroke-opacity:1"
       d="m 110.06667,271.59999 c -4.95965,-4.95965 -12.743884,-4.48163 -7.78422,-9.4413 4.95966,-4.95966 4.54846,2.75776 9.50811,7.71741 4.95966,4.95966 13.41206,5.28345 8.4524,10.24311 -4.95966,4.95966 -5.21663,-3.55956 -10.17629,-8.51922 z"
       id="path10482-17-7"
       inkscape:connector-curvature="0"
       sodipodi:nodetypes="sssss" />
    <path
       style="fill:#000000;fill-opacity:1;stroke:none;stroke-width:10;stroke-miterlimit:4;stroke-dasharray:none;stroke-opacity:1"
       d="m 88.899999,182.69999 c -2.68414,6.4801 0.73638,13.48886 -5.74373,10.80471 -6.48011,-2.68414 0.80722,-5.25757 3.49136,-11.73767 2.68415,-6.48011 -0.2513,-14.41302 6.2288,-11.72887 6.480107,2.68415 -1.29228,6.18173 -3.97643,12.66183 z"
       id="path10482-9-5"
       inkscape:connector-curvature="0"
       sodipodi:nodetypes="sssss" />
    <path
       style="fill:#000000;fill-opacity:1;stroke:none;stroke-width:10;stroke-miterlimit:4;stroke-dasharray:none;stroke-opacity:1"
       d="m 46.566666,182.69999 c 2.684145,6.4801 10.058764,9.01736 3.578654,11.70151 -6.48011,2.68415 -3.14688,-4.28845 -5.831026,-10.76855 -2.684149,-6.48011 -10.369243,-10.01384 -3.889134,-12.69799 6.480111,-2.68415 3.457356,5.28492 6.141506,11.76503 z"
       id="path10482-7"
       inkscape:connector-curvature="0"
       sodipodi:nodetypes="sssss" />
    <path
       style="fill:#000000;fill-opacity:1;stroke:none;stroke-width:10;stroke-miterlimit:4;stroke-dasharray:none;stroke-opacity:1"
       d="m 88.899999,275.83332 c -2.684139,-6.4801 0.736381,-13.48886 -5.743728,-10.80471 -6.480112,2.68414 0.80722,5.25757 3.49136,11.73767 2.68415,6.48011 -0.251302,14.41302 6.228799,11.72887 6.480106,-2.68415 -1.29228,-6.18173 -3.976431,-12.66183 z"
       id="path10482-9-5-9"
       inkscape:connector-curvature="0"
       sodipodi:nodetypes="sssss" />
    <path
       style="fill:#000000;fill-opacity:1;stroke:none;stroke-width:10;stroke-miterlimit:4;stroke-dasharray:none;stroke-opacity:1"
       d="m 46.566666,275.83332 c 2.684146,-6.4801 10.058765,-9.01736 3.578655,-11.70151 -6.480111,-2.68415 -3.146881,4.28845 -5.831027,10.76855 -2.684149,6.48011 -10.369242,10.01384 -3.889134,12.69799 6.480111,2.68415 3.457356,-5.28492 6.141506,-11.76503 z"
       id="path10482-7-9"
       inkscape:connector-curvature="0"
       sodipodi:nodetypes="sssss" />
    <path
       style="fill:#000000;fill-opacity:1;stroke:none;stroke-width:10;stroke-miterlimit:4;stroke-dasharray:none;stroke-opacity:1"
       d="m 21.166667,208.09999 c 6.4801,2.68414 13.48886,-0.73638 10.80471,5.74373 -2.68414,6.48011 -5.25757,-0.80722 -11.73767,-3.49136 -6.48011,-2.68415 -14.4130205,0.2513 -11.7288705,-6.2288 2.6841505,-6.48011 6.1817305,1.29228 12.6618305,3.97643 z"
       id="path10482-9-5-2"
       inkscape:connector-curvature="0"
       sodipodi:nodetypes="sssss" />
    <path
       style="fill:#000000;fill-opacity:1;stroke:none;stroke-width:10;stroke-miterlimit:4;stroke-dasharray:none;stroke-opacity:1"
       d="m 21.166667,250.43332 c 6.4801,-2.68414 9.01736,-10.05876 11.70151,-3.57865 2.68415,6.48011 -4.28845,3.14688 -10.76855,5.83102 -6.48011,2.68415 -10.01384,10.36925 -12.6979905,3.88914 -2.68415,-6.48011 5.2849205,-3.45736 11.7650305,-6.14151 z"
       id="path10482-7-5"
       inkscape:connector-curvature="0"
       sodipodi:nodetypes="sssss" />
    <path
       style="fill:#000000;fill-opacity:1;stroke:none;stroke-width:10;stroke-miterlimit:4;stroke-dasharray:none;stroke-opacity:1"
       d="m 114.33088,251.52431 c -6.4801,-2.68414 -13.48886,0.73638 -10.80471,-5.74373 2.68414,-6.48011 5.25757,0.80722 11.73767,3.49136 6.48011,2.68415 14.41302,-0.2513 11.72887,6.2288 -2.68415,6.48011 -6.18173,-1.29228 -12.66183,-3.97643 z"
       id="path10482-9-5-2-5"
       inkscape:connector-curvature="0"
       sodipodi:nodetypes="sssss" />
    <path
       style="fill:#000000;fill-opacity:1;stroke:none;stroke-width:10;stroke-miterlimit:4;stroke-dasharray:none;stroke-opacity:1"
       d="m 115.38922,209.19098 c -6.4801,2.68414 -9.01736,10.05876 -11.70151,3.57865 -2.68417,-6.48011 4.28845,-3.14688 10.76855,-5.83102 6.48011,-2.68415 10.01384,-10.36925 12.69799,-3.88914 2.68415,6.48011 -5.28492,3.45736 -11.76503,6.14151 z"
       id="path10482-7-5-2"
       inkscape:connector-curvature="0"
       sodipodi:nodetypes="sssss" />
  </g>
</svg>
