<?xml version="1.0" encoding="UTF-8" standalone="no"?>
<!-- Created with Inkscape (http://www.inkscape.org/) -->

<svg
   xmlns:dc="http://purl.org/dc/elements/1.1/"
   xmlns:cc="http://creativecommons.org/ns#"
   xmlns:rdf="http://www.w3.org/1999/02/22-rdf-syntax-ns#"
   xmlns:svg="http://www.w3.org/2000/svg"
   xmlns="http://www.w3.org/2000/svg"
   xmlns:sodipodi="http://sodipodi.sourceforge.net/DTD/sodipodi-0.dtd"
   xmlns:inkscape="http://www.inkscape.org/namespaces/inkscape"
   width="512"
   height="512"
   viewBox="0 0 135.46666 135.46667"
   version="1.1"
   id="svg8"
   sodipodi:docname="DashboardMedlar.svg"
   inkscape:version="0.92.0 r15299">
  <defs
     id="defs2" />
  <sodipodi:namedview
     id="base"
     pagecolor="#ffffff"
     bordercolor="#666666"
     borderopacity="1.0"
     inkscape:pageopacity="0.0"
     inkscape:pageshadow="2"
     inkscape:zoom="1.4"
     inkscape:cx="294.51002"
     inkscape:cy="184.84071"
     inkscape:document-units="mm"
     inkscape:current-layer="layer1"
     showgrid="false"
     units="px"
     inkscape:window-width="2400"
     inkscape:window-height="1271"
     inkscape:window-x="2391"
     inkscape:window-y="-9"
     inkscape:window-maximized="1"
     inkscape:pagecheckerboard="true" />
  <metadata
     id="metadata5">
    <rdf:RDF>
      <cc:Work
         rdf:about="">
        <dc:format>image/svg+xml</dc:format>
        <dc:type
           rdf:resource="http://purl.org/dc/dcmitype/StillImage" />
        <dc:title></dc:title>
      </cc:Work>
    </rdf:RDF>
  </metadata>
  <g
     inkscape:label="Layer 1"
     inkscape:groupmode="layer"
     id="layer1"
     transform="translate(0,-161.53332)">
    <path
       style="fill:#000000;fill-opacity:1;stroke:#ffffff;stroke-width:1.27651834;stroke-miterlimit:4;stroke-dasharray:none;stroke-opacity:1"
       d="m 52.819279,162.20417 c -0.733266,-0.0131 -1.462206,0.0335 -2.184239,0.0902 -1.673012,0.15119 -3.267849,0.54693 -4.851131,0.93749 -4.191452,1.07787 -8.29005,2.34776 -12.53936,3.30493 -3.684688,0.79697 -7.529838,1.20866 -11.415899,1.25514 -2.268492,0.0158 -4.548265,-0.12007 -6.823214,-0.20524 -0.936316,0.0272 -1.63511,0.77386 -1.501001,1.52536 0.09181,0.43614 0.301166,0.85945 0.527014,1.26906 0.392407,0.68772 0.8774,1.34204 1.323562,2.01009 1.525291,2.21801 3.190332,4.38373 5.053643,6.44175 1.653147,1.81665 3.421127,3.56741 5.285567,5.25005 1.444591,1.3093 2.951513,2.57357 4.488056,3.81286 2.487993,1.9906 5.074601,3.91549 7.899419,5.58265 1.947811,1.14801 4.000756,2.18528 6.17373,2.99502 1.459014,0.53696 2.984687,1.02249 4.558452,1.1056 0.716254,0.047 1.422994,-0.0302 2.110948,-0.13511 1.300517,-0.23128 2.516156,-0.69133 3.549266,-1.33352 0.992187,-0.62965 1.811366,-1.42611 2.412788,-2.32826 1.876037,-2.66228 3.304786,-5.55486 4.176572,-8.59107 0.85501,-2.94244 1.224794,-6.00875 1.07669,-9.09488 -0.104718,-2.13569 -0.470256,-4.28192 -1.118638,-6.39122 -0.371481,-1.17037 -0.799038,-2.33729 -1.386727,-3.46324 -0.546839,-0.99135 -1.354613,-1.90871 -2.38916,-2.62322 -0.976092,-0.68471 -2.165789,-1.18762 -3.412813,-1.33971 -0.09228,-0.0183 -0.185213,-0.0309 -0.278695,-0.0397 -0.245298,-0.0196 -0.490409,-0.0307 -0.73483,-0.0351 z m 33.298303,3.04143 c -0.533189,0.007 -1.059771,0.0698 -1.575736,0.14851 -1.300509,0.23127 -2.515665,0.69185 -3.548785,1.33404 -0.99217,0.62966 -1.811366,1.42611 -2.412788,2.32826 -1.87603,2.66228 -3.305271,5.55434 -4.177054,8.59055 -0.855002,2.94244 -1.224332,6.00927 -1.076209,9.0954 0.104718,2.1357 0.469773,4.2814 1.118158,6.39071 0.371478,1.17036 0.799519,2.3373 1.387207,3.46324 0.546839,0.99135 1.35413,1.90869 2.388679,2.62321 0.976082,0.68472 2.166259,1.18763 3.413294,1.33972 0.09228,0.0183 0.185194,0.0314 0.278697,0.0402 0.981195,0.0785 1.955855,0.0199 2.918584,-0.0557 1.673014,-0.15121 3.268333,-0.54693 4.851614,-0.93749 4.191452,-1.07786 8.290042,-2.34777 12.539357,-3.30493 3.68469,-0.79697 7.52982,-1.20815 11.41591,-1.25463 2.26847,-0.0158 4.54825,0.11955 6.82321,0.20472 0.93632,-0.0271 1.63464,-0.77333 1.50052,-1.52484 -0.0918,-0.43614 -0.30115,-0.85945 -0.52702,-1.26906 -0.3924,-0.68771 -0.87739,-1.34255 -1.32356,-2.0106 -1.52528,-2.21802 -3.18986,-4.38322 -5.05316,-6.44124 -1.65314,-1.81665 -3.42113,-3.56792 -5.28556,-5.25056 -1.44458,-1.30932 -2.95201,-2.57307 -4.48854,-3.81235 -2.48798,-1.99059 -5.07414,-3.91547 -7.898939,-5.58266 -1.947815,-1.14798 -4.00075,-2.18527 -6.173734,-2.99501 -1.459024,-0.53696 -2.985151,-1.02249 -4.558934,-1.1056 -0.179063,-0.0118 -0.357482,-0.0162 -0.535211,-0.0139 z m -19.173081,6.06583 c -1.714546,0.0331 -3.189687,0.48749 -3.592661,1.4743 -0.80326,1.96706 -2.662689,19.06513 -3.33036,28.76463 -2.130537,-0.20406 -4.262071,-0.37712 -6.395527,-0.12015 -2.780342,0.35698 -5.416109,1.47549 -7.938477,2.73099 -2.051471,1.04855 -4.08958,2.1403 -5.998218,3.4684 -5.43284,3.71857 -10.137667,8.7847 -13.173899,14.90752 -2.455737,4.97193 -3.740947,10.59863 -3.690542,16.22351 -0.03359,7.30836 1.62871,14.67877 5.098002,20.99914 1.819204,3.25261 4.192478,6.25193 7.260062,8.21257 0.794525,0.49072 1.633229,0.8993 2.499579,1.22111 l -0.169724,0.96997 -0.518819,1.48153 -0.605607,1.48152 -1.297524,2.59227 -1.470143,2.12972 -1.989439,2.12921 -2.075752,1.75947 -2.421466,1.75895 -1.816341,1.20357 2.075749,-0.55538 2.508259,-1.11126 1.902649,-1.11076 1.816341,-1.2964 1.98944,-1.75895 1.470143,-1.75947 1.210734,-1.75895 1.211215,-2.0369 0.951324,-1.85177 0.400686,-1.50163 c 0.858257,0.10016 1.72483,0.11873 2.587334,0.0464 0.439437,-0.0245 0.877346,-0.0642 1.313919,-0.1119 0.270717,1.99882 0.542015,4.00079 1.00388,5.96115 0.335258,1.55515 0.76556,3.08459 1.227611,4.60133 0.260593,0.86591 0.568292,1.71522 0.927698,2.53968 0.682981,1.6608 1.354841,3.33107 2.182792,4.91692 0.950694,1.92321 1.963499,3.81224 3.074811,5.63473 0.61927,1.04181 1.262034,2.06701 1.897344,3.09763 -0.576051,-2.18946 -1.11636,-4.3921 -1.825021,-6.53819 -0.815988,-2.58946 -1.663734,-5.16886 -2.398322,-7.78662 -0.514938,-1.94032 -0.934351,-3.90848 -1.277754,-5.89154 -0.274927,-1.53485 -0.441867,-3.0992 -0.377542,-4.66372 0.03022,-0.8813 0.07501,-1.76224 0.11958,-2.64282 1.204039,-0.24704 2.407044,-0.50196 3.614842,-0.7142 4.089205,-0.81589 8.230662,-1.5441 12.393262,-1.6816 l 1.286917,22.45848 1.277754,-22.46312 c 0.429173,0.0131 0.858424,0.0309 1.287883,0.0593 5.046823,0.27144 9.989664,1.41329 14.960344,2.31949 0.04493,0.88779 0.09007,1.77595 0.120543,2.66447 0.06432,1.56452 -0.102615,3.12887 -0.377541,4.66372 -0.343404,1.98306 -0.762827,3.95122 -1.277755,5.89154 -0.734598,2.61776 -1.582333,5.19716 -2.398324,7.78662 -0.708659,2.14609 -1.248977,4.34873 -1.825019,6.53819 0.635301,-1.03062 1.278074,-2.05582 1.897345,-3.09763 1.111321,-1.82249 2.124597,-3.71152 3.075292,-5.63473 0.827951,-1.58585 1.499329,-3.25612 2.18231,-4.91692 0.359404,-0.82446 0.667577,-1.67377 0.92818,-2.53968 0.462053,-1.51674 0.891852,-3.04618 1.227128,-4.60133 0.4682,-1.98732 0.740521,-4.01745 1.014973,-6.04366 1.340218,0.14374 2.694818,0.2016 4.028543,0.0578 l 0.424795,1.59187 0.951324,1.85177 1.210734,2.0369 1.211218,1.75895 1.470144,1.75947 1.989442,1.75895 1.816331,1.2964 1.90266,1.11076 2.50826,1.11126 2.07575,0.55538 -1.81634,-1.20357 -2.42147,-1.75895 -2.07575,-1.75947 -1.989441,-2.12921 -1.470628,-2.12972 -1.297045,-2.59227 -0.605606,-1.48152 -0.518814,-1.48153 -0.189017,-1.08084 c 2.916047,-1.14472 5.394081,-3.35669 7.293821,-5.95961 3.23807,-4.27703 5.23495,-9.50338 6.27691,-14.86266 1.2929,-6.56979 1.2665,-13.50115 -0.49808,-19.96934 -1.7922,-6.37773 -5.47945,-12.03659 -10.117416,-16.42772 -4.617227,-4.4051 -10.143301,-7.66973 -16.008588,-9.73586 -2.170669,-0.77289 -4.46279,-1.12032 -6.748476,-1.06279 -1.561065,0.12274 -3.120997,0.30504 -4.68189,0.46977 1.221253,-9.79961 2.609716,-25.36369 2.234384,-27.38469 -0.330075,-1.7773 -3.852326,-2.89336 -6.709903,-2.83825 z"
       id="path4485-6-0"
       inkscape:connector-curvature="0" />
    <path
       style="fill:#ffffff;stroke:#ffffff;stroke-width:0.23915911px;stroke-linecap:butt;stroke-linejoin:miter;stroke-opacity:1"
       d="m 13.349951,168.32361 1.525628,0.65337 1.353505,0.55697 1.236976,0.50226 1.480765,0.55409 1.663607,0.59291 1.785485,0.61882 1.613371,0.52241 1.857162,0.57418 1.679674,0.50659 2.045361,0.58425 2.106307,0.59723 2.172609,0.58131 2.050735,0.55542 1.812281,0.47495 1.878593,0.45908 1.640189,0.37846 1.58996,0.30788 2.204773,0.40866 2.082897,0.38267 2.082897,0.38267 1.960982,0.35683 2.514885,0.44461 2.957491,0.4495 2.403608,0.36175 1.971666,0.29969 0.991217,0.12082 0.0028,0.3296 -1.118477,-0.11792 -1.661621,-0.26331 -1.54509,-0.20861 -2.342744,-0.34821 -1.788871,-0.26042 -2.514865,-0.44462 -2.50951,-0.47345 -1.717203,-0.30501 -2.387625,-0.44748 -2.631404,-0.49929 -0.670404,-0.14247 -2.549006,-0.60155 -2.599233,-0.67199 -2.715763,-0.72671 -1.867863,-0.51672 -2.045351,-0.58425 -1.685068,-0.47772 -2.039994,-0.61305 -1.735257,-0.54831 -1.430539,-0.48353 -1.724545,-0.6059 -1.597296,-0.60875 -2.007822,-0.78577 -1.703104,-0.72103 -1.342795,-0.61452 z"
       id="path4569-9-4"
       inkscape:connector-curvature="0" />
    <rect
       style="fill:#ffffff;fill-opacity:1;stroke:#ffffff;stroke-width:0.26199153;stroke-miterlimit:4;stroke-dasharray:none;stroke-opacity:1"
       id="rect4583-0-9"
       width="0.11248419"
       height="20.149246"
       x="-19.694201"
       y="168.35806"
       rx="6.6489008e-007"
       ry="1.423687"
       transform="matrix(0.87590594,-0.48248191,0.41997187,0.90753712,0,0)" />
    <rect
       style="fill:#ffffff;fill-opacity:1;stroke:#ffffff;stroke-width:0.23868401;stroke-miterlimit:4;stroke-dasharray:none;stroke-opacity:1"
       id="rect4583-1-5-0"
       width="0.10247727"
       height="18.356714"
       x="-25.448992"
       y="165.94717"
       rx="6.0573961e-007"
       ry="1.2970315"
       transform="matrix(0.87590592,-0.48248193,0.41997191,0.9075371,0,0)" />
    <rect
       style="fill:#ffffff;fill-opacity:1;stroke:#ffffff;stroke-width:0.20566404;stroke-miterlimit:4;stroke-dasharray:none;stroke-opacity:1"
       id="rect4583-1-4-4-0"
       width="0.088300392"
       height="15.817212"
       x="-31.095379"
       y="164.40685"
       rx="5.2194048e-007"
       ry="1.1175977"
       transform="matrix(0.87590592,-0.48248193,0.41997191,0.9075371,0,0)" />
    <rect
       style="fill:#ffffff;fill-opacity:1;stroke:#ffffff;stroke-width:0.1670261;stroke-miterlimit:4;stroke-dasharray:none;stroke-opacity:1"
       id="rect4583-1-4-9-3-2"
       width="0.071711458"
       height="12.845645"
       x="-36.680611"
       y="163.07607"
       rx="4.2388393e-007"
       ry="0.90763575"
       transform="matrix(0.87590592,-0.48248193,0.41997191,0.9075371,0,0)" />
    <rect
       style="fill:#ffffff;fill-opacity:1;stroke:#ffffff;stroke-width:0.12698317;stroke-miterlimit:4;stroke-dasharray:none;stroke-opacity:1"
       id="rect4583-1-4-9-2-2-8"
       width="0.054519314"
       height="9.7660227"
       x="-42.293941"
       y="161.4456"
       rx="3.2226168e-007"
       ry="0.69003856"
       transform="matrix(0.87590592,-0.48248193,0.41997191,0.9075371,0,0)" />
    <rect
       style="fill:#ffffff;fill-opacity:1;stroke:#ffffff;stroke-width:0.08834524;stroke-miterlimit:4;stroke-dasharray:none;stroke-opacity:1"
       id="rect4583-1-4-9-2-3-0-8"
       width="0.037930392"
       height="6.7944565"
       x="-47.995087"
       y="159.19788"
       rx="2.2420521e-007"
       ry="0.4800764"
       transform="matrix(0.87590592,-0.48248193,0.41997191,0.9075371,0,0)" />
    <rect
       style="fill:#ffffff;fill-opacity:1;stroke:#ffffff;stroke-width:0.05532736;stroke-miterlimit:4;stroke-dasharray:none;stroke-opacity:1"
       id="rect4583-1-4-9-2-3-2-3-3"
       width="0.02375441"
       height="4.2551179"
       x="-53.275795"
       y="156.43231"
       rx="1.4041149e-007"
       ry="0.3006542"
       transform="matrix(0.87590592,-0.48248193,0.41997191,0.9075371,0,0)" />
    <rect
       style="fill:#ffffff;fill-opacity:1;stroke:#ffffff;stroke-width:0.28953475;stroke-miterlimit:4;stroke-dasharray:none;stroke-opacity:1"
       id="rect4583-2-2-4"
       width="0.12655883"
       height="21.871815"
       x="165.4558"
       y="-104.76807"
       rx="7.4808491e-007"
       ry="1.5453981"
       transform="matrix(0.70102715,0.71313458,0.65244007,-0.75784032,0,0)" />
    <rect
       style="fill:#ffffff;fill-opacity:1;stroke:#ffffff;stroke-width:0.27541515;stroke-miterlimit:4;stroke-dasharray:none;stroke-opacity:1"
       id="rect4583-2-3-4-3"
       width="0.120387"
       height="20.805201"
       x="159.4633"
       y="-107.65015"
       rx="7.1160338e-007"
       ry="1.4700342"
       transform="matrix(0.70102715,0.71313458,0.65244007,-0.75784032,0,0)" />
    <rect
       style="fill:#ffffff;fill-opacity:1;stroke:#ffffff;stroke-width:0.24314168;stroke-miterlimit:4;stroke-dasharray:none;stroke-opacity:1"
       id="rect4583-2-3-7-2-8"
       width="0.10627991"
       height="18.367222"
       x="153.64682"
       y="-109.26775"
       rx="6.2821692e-007"
       ry="1.297774"
       transform="matrix(0.70102715,0.71313458,0.65244007,-0.75784032,0,0)" />
    <rect
       style="fill:#ffffff;fill-opacity:1;stroke:#ffffff;stroke-width:0.204817;stroke-miterlimit:4;stroke-dasharray:none;stroke-opacity:1"
       id="rect4583-2-3-7-4-9-0"
       width="0.089527771"
       height="15.472131"
       x="147.88361"
       y="-110.30838"
       rx="5.2919557e-007"
       ry="1.0932151"
       transform="matrix(0.70102715,0.71313458,0.65244007,-0.75784032,0,0)" />
    <rect
       style="fill:#ffffff;fill-opacity:1;stroke:#ffffff;stroke-width:0.1627638;stroke-miterlimit:4;stroke-dasharray:none;stroke-opacity:1"
       id="rect4583-2-3-7-4-4-3-5"
       width="0.071145855"
       height="12.29538"
       x="141.52707"
       y="-110.95947"
       rx="4.2054069e-007"
       ry="0.86875522"
       transform="matrix(0.70102715,0.71313458,0.65244007,-0.75784032,0,0)" />
    <rect
       style="fill:#ffffff;fill-opacity:1;stroke:#ffffff;stroke-width:0.11737929;stroke-miterlimit:4;stroke-dasharray:none;stroke-opacity:1"
       id="rect4583-2-3-7-4-4-8-9-5"
       width="0.051307775"
       height="8.8669767"
       x="134.78227"
       y="-111.27206"
       rx="3.0327851e-007"
       ry="0.62651443"
       transform="matrix(0.70102715,0.71313458,0.65244007,-0.75784032,0,0)" />
    <rect
       style="fill:#ffffff;fill-opacity:1;stroke:#ffffff;stroke-width:0.06997766;stroke-miterlimit:4;stroke-dasharray:none;stroke-opacity:1"
       id="rect4583-2-3-7-4-4-8-8-1-0"
       width="0.030588012"
       height="5.2862005"
       x="128.11574"
       y="-110.97588"
       rx="1.808047e-007"
       ry="0.37350735"
       transform="matrix(0.70102715,0.71313458,0.65244007,-0.75784032,0,0)" />
    <path
       style="fill:#ffffff;stroke:#ffffff;stroke-width:0.23915911px;stroke-linecap:butt;stroke-linejoin:miter;stroke-opacity:1"
       d="m 122.11695,194.51489 -1.52563,-0.65338 -1.35352,-0.55698 -1.23698,-0.50226 -1.48077,-0.55409 -1.66358,-0.59291 -1.78551,-0.61882 -1.61335,-0.52241 -1.85716,-0.57418 -1.67968,-0.50658 -2.04537,-0.58426 -2.10629,-0.59723 -2.17262,-0.58131 -2.050744,-0.55543 -1.812276,-0.47494 -1.878595,-0.45907 -1.64018,-0.37847 -1.589971,-0.30788 -2.204763,-0.40866 -2.082896,-0.38266 -2.082897,-0.38268 -1.961001,-0.35683 -2.514866,-0.44461 -2.957491,-0.4495 -2.403617,-0.36175 -1.971657,-0.29969 -0.991217,-0.12082 -0.0028,-0.3296 1.118458,0.11792 1.661638,0.26331 1.545082,0.20861 2.342744,0.34821 1.788862,0.26043 2.514884,0.4446 2.509492,0.47346 1.717221,0.30501 2.387736,0.44748 2.631396,0.49929 0.670393,0.14246 2.548999,0.60157 2.599238,0.67198 2.715758,0.72671 1.86788,0.51672 2.04535,0.58425 1.68505,0.47772 2.04,0.61306 1.73526,0.5483 1.43055,0.48353 1.72455,0.60591 1.59728,0.60876 2.00783,0.78576 1.70311,0.72103 1.34278,0.61451 z"
       id="path4569-3-8-8"
       inkscape:connector-curvature="0" />
    <rect
       style="fill:#ffffff;fill-opacity:1;stroke:#ffffff;stroke-width:0.26199153;stroke-miterlimit:4;stroke-dasharray:none;stroke-opacity:1"
       id="rect4583-5-9-6"
       width="0.11248419"
       height="20.149246"
       x="9.8189325"
       y="-215.75717"
       rx="6.6489008e-007"
       ry="1.423687"
       transform="matrix(-0.87590592,0.48248193,-0.41997187,-0.90753712,0,0)" />
    <rect
       style="fill:#ffffff;fill-opacity:1;stroke:#ffffff;stroke-width:0.23868401;stroke-miterlimit:4;stroke-dasharray:none;stroke-opacity:1"
       id="rect4583-1-9-4-8"
       width="0.10247727"
       height="18.356714"
       x="4.0641289"
       y="-218.16803"
       rx="6.0573961e-007"
       ry="1.2970315"
       transform="matrix(-0.87590592,0.48248193,-0.41997191,-0.9075371,0,0)" />
    <rect
       style="fill:#ffffff;fill-opacity:1;stroke:#ffffff;stroke-width:0.20566404;stroke-miterlimit:4;stroke-dasharray:none;stroke-opacity:1"
       id="rect4583-1-4-5-7-5"
       width="0.088300392"
       height="15.817212"
       x="-1.5822306"
       y="-219.70836"
       rx="5.2194048e-007"
       ry="1.1175977"
       transform="matrix(-0.87590592,0.48248193,-0.41997191,-0.9075371,0,0)" />
    <rect
       style="fill:#ffffff;fill-opacity:1;stroke:#ffffff;stroke-width:0.1670261;stroke-miterlimit:4;stroke-dasharray:none;stroke-opacity:1"
       id="rect4583-1-4-9-9-8-2"
       width="0.071711458"
       height="12.845645"
       x="-7.1674652"
       y="-221.03915"
       rx="4.2388393e-007"
       ry="0.90763581"
       transform="matrix(-0.87590592,0.48248193,-0.41997191,-0.9075371,0,0)" />
    <rect
       style="fill:#ffffff;fill-opacity:1;stroke:#ffffff;stroke-width:0.12698317;stroke-miterlimit:4;stroke-dasharray:none;stroke-opacity:1"
       id="rect4583-1-4-9-2-7-9-8"
       width="0.054519318"
       height="9.7660227"
       x="-12.780785"
       y="-222.6696"
       rx="3.2226168e-007"
       ry="0.69003856"
       transform="matrix(-0.87590592,0.48248193,-0.41997191,-0.9075371,0,0)" />
    <rect
       style="fill:#ffffff;fill-opacity:1;stroke:#ffffff;stroke-width:0.08834524;stroke-miterlimit:4;stroke-dasharray:none;stroke-opacity:1"
       id="rect4583-1-4-9-2-3-5-2-7"
       width="0.037930392"
       height="6.7944574"
       x="-18.481932"
       y="-224.91737"
       rx="2.2420522e-007"
       ry="0.4800764"
       transform="matrix(-0.87590592,0.48248193,-0.41997191,-0.9075371,0,0)" />
    <rect
       style="fill:#ffffff;fill-opacity:1;stroke:#ffffff;stroke-width:0.05532736;stroke-miterlimit:4;stroke-dasharray:none;stroke-opacity:1"
       id="rect4583-1-4-9-2-3-2-6-7-4"
       width="0.02375441"
       height="4.2551179"
       x="-23.762671"
       y="-227.68291"
       rx="1.4041149e-007"
       ry="0.3006542"
       transform="matrix(-0.87590592,0.48248193,-0.41997191,-0.9075371,0,0)" />
    <rect
       style="fill:#ffffff;fill-opacity:1;stroke:#ffffff;stroke-width:0.28953475;stroke-miterlimit:4;stroke-dasharray:none;stroke-opacity:1"
       id="rect4583-2-0-0-4"
       width="0.12655883"
       height="21.871815"
       x="-175.11386"
       y="53.532475"
       rx="7.4808491e-007"
       ry="1.5453981"
       transform="matrix(-0.70102715,-0.71313458,-0.65244007,0.75784032,0,0)" />
    <rect
       style="fill:#ffffff;fill-opacity:1;stroke:#ffffff;stroke-width:0.27541515;stroke-miterlimit:4;stroke-dasharray:none;stroke-opacity:1"
       id="rect4583-2-3-5-8-9"
       width="0.120387"
       height="20.805201"
       x="-181.10629"
       y="50.650402"
       rx="7.1160338e-007"
       ry="1.4700342"
       transform="matrix(-0.70102715,-0.71313458,-0.65244007,0.75784032,0,0)" />
    <rect
       style="fill:#ffffff;fill-opacity:1;stroke:#ffffff;stroke-width:0.24314168;stroke-miterlimit:4;stroke-dasharray:none;stroke-opacity:1"
       id="rect4583-2-3-7-8-4-8"
       width="0.10627991"
       height="18.367222"
       x="-186.92274"
       y="49.032768"
       rx="6.2821692e-007"
       ry="1.297774"
       transform="matrix(-0.70102715,-0.71313458,-0.65244007,0.75784032,0,0)" />
    <rect
       style="fill:#ffffff;fill-opacity:1;stroke:#ffffff;stroke-width:0.204817;stroke-miterlimit:4;stroke-dasharray:none;stroke-opacity:1"
       id="rect4583-2-3-7-4-5-1-3"
       width="0.089527771"
       height="15.472131"
       x="-192.68599"
       y="47.992134"
       rx="5.2919557e-007"
       ry="1.0932151"
       transform="matrix(-0.70102715,-0.71313458,-0.65244007,0.75784032,0,0)" />
    <rect
       style="fill:#ffffff;fill-opacity:1;stroke:#ffffff;stroke-width:0.1627638;stroke-miterlimit:4;stroke-dasharray:none;stroke-opacity:1"
       id="rect4583-2-3-7-4-4-80-0-4"
       width="0.071145855"
       height="12.29538"
       x="-199.04251"
       y="47.341064"
       rx="4.2054069e-007"
       ry="0.86875522"
       transform="matrix(-0.70102715,-0.71313458,-0.65244007,0.75784032,0,0)" />
    <rect
       style="fill:#ffffff;fill-opacity:1;stroke:#ffffff;stroke-width:0.11737929;stroke-miterlimit:4;stroke-dasharray:none;stroke-opacity:1"
       id="rect4583-2-3-7-4-4-8-6-6-1"
       width="0.051307775"
       height="8.8669767"
       x="-205.78726"
       y="47.028419"
       rx="3.0327851e-007"
       ry="0.62651443"
       transform="matrix(-0.70102715,-0.71313458,-0.65244007,0.75784032,0,0)" />
    <rect
       style="fill:#ffffff;fill-opacity:1;stroke:#ffffff;stroke-width:0.06997766;stroke-miterlimit:4;stroke-dasharray:none;stroke-opacity:1"
       id="rect4583-2-3-7-4-4-8-8-9-3-2"
       width="0.030588012"
       height="5.2862005"
       x="-212.45378"
       y="47.324657"
       rx="1.808047e-007"
       ry="0.37350735"
       transform="matrix(-0.70102715,-0.71313458,-0.65244007,0.75784032,0,0)" />
    <rect
       style="fill:#ffffff;fill-opacity:1;stroke:#ffffff;stroke-width:0.49567392;stroke-miterlimit:4;stroke-dasharray:none;stroke-opacity:1"
       id="rect4872-6-96-3"
       width="0.0092342338"
       height="11.749254"
       x="192.8503"
       y="-25.648912"
       rx="2.0952803e-010"
       ry="0.44000655"
       transform="matrix(0.2510841,0.96796528,-0.97017993,0.24238585,0,0)" />
    <rect
       style="fill:#ffffff;fill-opacity:1;stroke:#ffffff;stroke-width:0.49567392;stroke-miterlimit:4;stroke-dasharray:none;stroke-opacity:1"
       id="rect4872-6-2-4-2"
       width="0.0092342328"
       height="11.749254"
       x="187.68723"
       y="-27.583981"
       rx="2.0952803e-010"
       ry="0.44000655"
       transform="matrix(0.2510841,0.96796528,-0.97017993,0.24238585,0,0)" />
    <rect
       style="fill:#ffffff;fill-opacity:1;stroke:#ffffff;stroke-width:0.50036407;stroke-miterlimit:4;stroke-dasharray:none;stroke-opacity:1"
       id="rect4872-6-9-5-9"
       width="0.0092287706"
       height="11.979743"
       x="197.93764"
       y="-22.722301"
       rx="2.0940408e-010"
       ry="0.4486382"
       transform="matrix(0.25649726,0.96654496,-0.97145274,0.23723316,0,0)" />
    <rect
       style="fill:#ffffff;fill-opacity:1;stroke:#ffffff;stroke-width:0.50036407;stroke-miterlimit:4;stroke-dasharray:none;stroke-opacity:1"
       id="rect4872-6-9-0-36-4"
       width="0.0092287706"
       height="11.979743"
       x="203.11592"
       y="-20.914358"
       rx="2.0940408e-010"
       ry="0.4486382"
       transform="matrix(0.25649726,0.96654496,-0.97145274,0.23723316,0,0)" />
    <rect
       style="fill:#ffffff;fill-opacity:1;stroke:#ffffff;stroke-width:0.50036407;stroke-miterlimit:4;stroke-dasharray:none;stroke-opacity:1"
       id="rect4872-6-9-0-3-7-3"
       width="0.0092287706"
       height="11.979743"
       x="208.71053"
       y="-18.870605"
       rx="2.0940408e-010"
       ry="0.4486382"
       transform="matrix(0.25649726,0.96654496,-0.97145274,0.23723316,0,0)" />
    <path
       style="fill:#000000;fill-opacity:1;stroke:none;stroke-width:12.63794804;stroke-miterlimit:4;stroke-dasharray:none;stroke-opacity:1"
       d="m 202.78595,200.87063 c -4.39811,0.32335 -8.78768,1.0613 -13.21028,0.79835 -3.62311,-0.16295 -7.24832,-0.84065 -10.87832,-0.43183 -2.97981,0.35774 -5.80434,1.47838 -8.50767,2.73654 -2.19865,1.05078 -4.38309,2.14531 -6.42866,3.47622 -5.82261,3.72646 -10.86519,8.80316 -14.11925,14.93897 -2.63192,4.98248 -4.00907,10.62083 -3.95505,16.25764 -0.036,7.32386 1.74545,14.71025 5.46364,21.04402 1.94972,3.25951 4.49328,6.26534 7.78094,8.23014 2.6625,1.53762 5.78273,2.27675 8.85131,2.03614 3.43556,-0.17894 6.78054,-1.04462 10.16396,-1.60055 5.73286,-1.06953 11.56122,-1.99263 17.4113,-1.6307 6.50349,0.32706 12.84551,1.92049 19.2725,2.84071 2.90809,0.40341 5.95143,0.60949 8.78307,-0.32873 3.38393,-1.07332 6.2479,-3.40437 8.41196,-6.17684 3.47038,-4.2861 5.61042,-9.52359 6.72714,-14.89423 1.38566,-6.58373 1.35736,-13.52958 -0.53382,-20.01149 -1.92078,-6.39126 -5.87254,-12.06214 -10.84324,-16.46258 -4.94848,-4.41445 -10.87065,-7.68623 -17.15673,-9.75674 -2.3264,-0.77453 -4.78313,-1.12269 -7.2328,-1.06504 z"
       id="path4485-6-0-1"
       inkscape:connector-curvature="0"
       sodipodi:nodetypes="sssss" />
    <path
       style="fill:#000000;stroke:#000000;stroke-width:0.36723304px;stroke-linecap:butt;stroke-linejoin:miter;stroke-opacity:1"
       d="m 174.04537,268.08042 c -0.39551,0.13636 -0.81362,0.21628 -1.21784,0.33087 -1.23516,0.32095 -2.47031,0.64188 -3.70547,0.96283 0.31404,2.15911 0.61079,4.32627 1.14457,6.44468 0.35931,1.55845 0.82018,3.09091 1.31538,4.61087 0.27929,0.86775 0.60927,1.71884 0.99446,2.54504 0.73198,1.66433 1.45187,3.33813 2.33922,4.92734 1.0189,1.92729 2.10447,3.82031 3.29551,5.64666 0.6637,1.04402 1.35282,2.07152 2.03371,3.10433 -0.61738,-2.1941 -1.19662,-4.40167 -1.95612,-6.55231 -0.87453,-2.59496 -1.78312,-5.17953 -2.57041,-7.80284 -0.55188,-1.94443 -1.00146,-3.91691 -1.3695,-5.90418 -0.29465,-1.53811 -0.47353,-3.1059 -0.40459,-4.67374 0.0423,-1.1533 0.11139,-2.30539 0.17154,-3.45783 0.0111,-0.0549 0.0352,-0.22112 -0.0705,-0.18172 z"
       id="path4492-4-2-0"
       inkscape:connector-curvature="0" />
    <path
       style="fill:#000000;stroke:#000000;stroke-width:0.36723304px;stroke-linecap:butt;stroke-linejoin:miter;stroke-opacity:1"
       d="m 211.41991,268.08042 c 0.3955,0.13636 0.81361,0.21628 1.21783,0.33087 1.23516,0.32095 2.47033,0.64188 3.70547,0.96283 -0.31404,2.15911 -0.61079,4.32627 -1.14455,6.44468 -0.35933,1.55845 -0.82019,3.09091 -1.31539,4.61087 -0.2793,0.86775 -0.60928,1.71884 -0.99447,2.54504 -0.73198,1.66433 -1.45187,3.33813 -2.33922,4.92734 -1.0189,1.92729 -2.10446,3.82031 -3.29551,5.64666 -0.6637,1.04402 -1.35282,2.07152 -2.0337,3.10433 0.61737,-2.1941 1.19661,-4.40167 1.95611,-6.55231 0.87453,-2.59496 1.78312,-5.17953 2.57042,-7.80284 0.55187,-1.94443 1.00145,-3.91691 1.36949,-5.90418 0.29465,-1.53811 0.47353,-3.1059 0.40459,-4.67374 -0.0423,-1.1533 -0.11139,-2.30539 -0.17154,-3.45783 -0.0111,-0.0549 -0.0352,-0.22112 0.0705,-0.18172 z"
       id="path4492-7-4-1-4"
       inkscape:connector-curvature="0" />
    <path
       sodipodi:type="star"
       style="fill:#000000;fill-opacity:1;stroke:none;stroke-width:10;stroke-miterlimit:4;stroke-dasharray:none;stroke-opacity:1"
       id="path4545-5-6-1"
       sodipodi:sides="3"
       sodipodi:cx="22.39509"
       sodipodi:cy="266.62015"
       sodipodi:r1="7.6716423"
       sodipodi:r2="3.8358212"
       sodipodi:arg1="0.71129828"
       sodipodi:arg2="1.7584958"
       inkscape:flatsided="true"
       inkscape:rounded="4.510281e-017"
       inkscape:randomized="0"
       d="m 28.206474,271.62833 -13.054291,-2.47947 8.67443,-10.06561 z"
       inkscape:transform-center-x="0.039550914"
       inkscape:transform-center-y="3.3512075"
       transform="matrix(-0.20947736,0.37951071,-0.04013196,-1.9809376,207.99689,793.36252)" />
    <path
       style="fill:#000000;stroke:#000000;stroke-width:0.36723304px;stroke-linecap:butt;stroke-linejoin:miter;stroke-opacity:1"
       d="m 165.13606,269.46676 -0.55617,1.94847 -1.01966,1.85568 -1.29776,2.04125 -1.29774,1.76292 -1.57584,1.76292 -2.13202,1.7629 -1.94661,1.29897 -2.03933,1.11341 -2.68819,1.11343 -2.22471,0.55669 1.94662,-1.20618 2.5955,-1.76292 2.22471,-1.76292 2.13201,-2.13403 1.57584,-2.13403 1.39045,-2.59797 0.64887,-1.48454 0.55617,-1.48455 0.27809,-1.48457 z"
       id="path4547-8-6-7"
       inkscape:connector-curvature="0" />
    <path
       style="fill:#000000;stroke:#000000;stroke-width:0.36723304px;stroke-linecap:butt;stroke-linejoin:miter;stroke-opacity:1"
       d="m 220.50302,269.46676 0.55619,1.94847 1.01965,1.85568 1.29774,2.04125 1.29774,1.76292 1.57585,1.76292 2.13202,1.7629 1.94661,1.29897 2.03933,1.11341 2.68819,1.11343 2.22472,0.55669 -1.94664,-1.20618 -2.59549,-1.76292 -2.22471,-1.76292 -2.13201,-2.13403 -1.57585,-2.13403 -1.39044,-2.59797 -0.64887,-1.48454 -0.55617,-1.48455 -0.27809,-1.48457 z"
       id="path4547-4-5-0-5"
       inkscape:connector-curvature="0" />
    <path
       sodipodi:type="star"
       style="fill:#000000;fill-opacity:1;stroke:none;stroke-width:10;stroke-miterlimit:4;stroke-dasharray:none;stroke-opacity:1"
       id="path4564-2-9-7"
       sodipodi:sides="4"
       sodipodi:cx="-45.168549"
       sodipodi:cy="177.93141"
       sodipodi:r1="16.347742"
       sodipodi:r2="11.5596"
       sodipodi:arg1="0.79117845"
       sodipodi:arg2="1.5765766"
       inkscape:flatsided="true"
       inkscape:rounded="0.11"
       inkscape:randomized="0"
       d="m -33.67596,189.55764 c -1.808616,1.78782 -21.330985,1.67498 -23.118812,-0.13364 -1.787827,-1.80862 -1.674981,-21.33098 0.133635,-23.11881 1.808616,-1.78783 21.330985,-1.67498 23.118812,0.13363 1.787827,1.80862 1.674981,21.33099 -0.133635,23.11882 z"
       transform="matrix(0.47853587,0.05029887,-0.1600841,1.5259129,242.85833,-78.385117)" />
    <path
       style="fill:#000000;fill-opacity:1;stroke:none;stroke-width:16.06570625;stroke-miterlimit:4;stroke-dasharray:none;stroke-opacity:1"
       inkscape:transform-center-x="5.2486185"
       inkscape:transform-center-y="0.99468822"
       d="m 178.62025,161.96289 c -1.05158,-0.0787 -2.09646,-0.0201 -3.12824,0.0557 -1.79304,0.15151 -3.50237,0.54792 -5.19924,0.9393 -4.49216,1.08016 -8.8848,2.35278 -13.43897,3.31198 -3.94904,0.79866 -8.07009,1.2111 -12.23495,1.25768 -2.43124,0.0158 -4.87453,-0.12012 -7.31269,-0.20547 -1.00349,0.0272 -1.75232,0.77525 -1.60859,1.52834 0.0984,0.43707 0.32281,0.86125 0.56486,1.27173 0.42056,0.68918 0.94048,1.34504 1.41865,2.0145 1.63472,2.22272 3.41886,4.39281 5.41585,6.4552 1.77175,1.8205 3.66648,3.57535 5.66468,5.26156 1.54823,1.31208 3.16368,2.57884 4.81046,3.82076 2.66649,1.99482 5.43832,3.92377 8.4658,5.59447 2.08755,1.15044 4.28774,2.18972 6.61661,3.00118 1.56369,0.5381 3.19901,1.02481 4.88568,1.10809 0.76764,0.0471 1.5251,-0.03 2.26241,-0.13512 1.39382,-0.23177 2.69653,-0.69312 3.80376,-1.33667 1.06337,-0.63098 1.94128,-1.42926 2.58585,-2.33332 2.01063,-2.66793 3.54219,-5.56619 4.47652,-8.60884 0.91635,-2.94868 1.31245,-6.02182 1.15372,-9.1145 -0.11223,-2.14022 -0.50394,-4.29083 -1.19884,-6.40461 -0.39813,-1.17285 -0.85639,-2.34224 -1.48624,-3.47058 -0.58607,-0.99345 -1.45167,-1.91257 -2.56044,-2.6286 -1.04612,-0.68616 -2.3215,-1.19026 -3.65799,-1.34268 -0.0989,-0.0183 -0.19847,-0.0312 -0.29866,-0.04 z"
       id="path4566-0-1-7"
       inkscape:connector-curvature="0" />
    <path
       style="fill:#ffffff;stroke:#ffffff;stroke-width:0.24785195px;stroke-linecap:butt;stroke-linejoin:miter;stroke-opacity:1"
       d="m 135.53194,168.06034 1.63508,0.65476 1.45061,0.55815 1.32572,0.50333 1.587,0.55526 1.78296,0.59417 1.91358,0.62013 1.72912,0.52352 1.9904,0.5754 1.80018,0.50766 2.1921,0.58549 2.25742,0.5985 2.32848,0.58254 2.19786,0.5566 1.9423,0.47596 2.01337,0.46005 1.75786,0.37926 1.70403,0.30854 2.36295,0.40952 2.23233,0.38348 2.23233,0.38349 2.10167,0.35758 2.69531,0.44556 3.16967,0.45045 2.57605,0.36252 2.11312,0.30032 1.06233,0.12108 0.003,0.3303 -1.19872,-0.11817 -1.78083,-0.26387 -1.65594,-0.20905 -2.51082,-0.34895 -1.91721,-0.26098 -2.69529,-0.44556 -2.68955,-0.47445 -1.8404,-0.30566 -2.55891,-0.44843 -2.82019,-0.50035 -0.7185,-0.14277 -2.73188,-0.60283 -2.78571,-0.67341 -2.9106,-0.72825 -2.00187,-0.51782 -2.19209,-0.58549 -1.80596,-0.47873 -2.18635,-0.61435 -1.85975,-0.54947 -1.53317,-0.48456 -1.84827,-0.60718 -1.71189,-0.61005 -2.15187,-0.78743 -1.82529,-0.72256 -1.43913,-0.61582 z"
       id="path4569-9-4-3"
       inkscape:connector-curvature="0" />
    <rect
       style="fill:#ffffff;fill-opacity:1;stroke:#ffffff;stroke-width:0.27119839;stroke-miterlimit:4;stroke-dasharray:none;stroke-opacity:1"
       id="rect4583-0-9-8"
       width="0.11877722"
       height="20.446402"
       x="88.139687"
       y="225.80373"
       rx="7.0208796e-007"
       ry="1.444683"
       transform="matrix(0.88900974,-0.45788829,0.44356046,0.89624445,0,0)" />
    <rect
       style="fill:#ffffff;fill-opacity:1;stroke:#ffffff;stroke-width:0.2470718;stroke-miterlimit:4;stroke-dasharray:none;stroke-opacity:1"
       id="rect4583-1-5-0-4"
       width="0.10821045"
       height="18.627434"
       x="82.062935"
       y="223.35732"
       rx="6.3962818e-007"
       ry="1.3161597"
       transform="matrix(0.88900973,-0.45788831,0.4435605,0.89624443,0,0)" />
    <rect
       style="fill:#ffffff;fill-opacity:1;stroke:#ffffff;stroke-width:0.21289144;stroke-miterlimit:4;stroke-dasharray:none;stroke-opacity:1"
       id="rect4583-1-4-4-0-1"
       width="0.093240432"
       height="16.05048"
       x="76.10067"
       y="221.79427"
       rx="5.5114089e-007"
       ry="1.1340797"
       transform="matrix(0.88900973,-0.45788831,0.4435605,0.89624443,0,0)" />
    <rect
       style="fill:#ffffff;fill-opacity:1;stroke:#ffffff;stroke-width:0.1728957;stroke-miterlimit:4;stroke-dasharray:none;stroke-opacity:1"
       id="rect4583-1-4-9-3-2-3"
       width="0.075723417"
       height="13.035089"
       x="70.20298"
       y="220.44386"
       rx="4.4759847e-007"
       ry="0.92102128"
       transform="matrix(0.88900973,-0.45788831,0.4435605,0.89624443,0,0)" />
    <rect
       style="fill:#ffffff;fill-opacity:1;stroke:#ffffff;stroke-width:0.13144559;stroke-miterlimit:4;stroke-dasharray:none;stroke-opacity:1"
       id="rect4583-1-4-9-2-2-8-7"
       width="0.057569444"
       height="9.9100475"
       x="64.275597"
       y="218.78935"
       rx="3.4029091e-007"
       ry="0.70021504"
       transform="matrix(0.88900973,-0.45788831,0.4435605,0.89624443,0,0)" />
    <rect
       style="fill:#ffffff;fill-opacity:1;stroke:#ffffff;stroke-width:0.09144985;stroke-miterlimit:4;stroke-dasharray:none;stroke-opacity:1"
       id="rect4583-1-4-9-2-3-0-8-1"
       width="0.04005244"
       height="6.894659"
       x="58.255497"
       y="216.50847"
       rx="2.3674855e-007"
       ry="0.48715642"
       transform="matrix(0.88900973,-0.45788831,0.4435605,0.89624443,0,0)" />
    <rect
       style="fill:#ffffff;fill-opacity:1;stroke:#ffffff;stroke-width:0.05727167;stroke-miterlimit:4;stroke-dasharray:none;stroke-opacity:1"
       id="rect4583-1-4-9-2-3-2-3-3-5"
       width="0.025083371"
       height="4.3178711"
       x="52.679356"
       y="213.70213"
       rx="1.4826692e-007"
       ry="0.30508813"
       transform="matrix(0.88900973,-0.45788831,0.4435605,0.89624443,0,0)" />
    <rect
       style="fill:#ffffff;fill-opacity:1;stroke:#ffffff;stroke-width:0.29955944;stroke-miterlimit:4;stroke-dasharray:none;stroke-opacity:1"
       id="rect4583-2-2-4-9"
       width="0.13123143"
       height="22.578966"
       x="260.33615"
       y="-24.146935"
       rx="7.7570445e-007"
       ry="1.5953635"
       transform="matrix(0.72456967,0.68920157,0.67734832,-0.73566246,0,0)" />
    <rect
       style="fill:#ffffff;fill-opacity:1;stroke:#ffffff;stroke-width:0.28495097;stroke-miterlimit:4;stroke-dasharray:none;stroke-opacity:1"
       id="rect4583-2-3-4-3-7"
       width="0.12483172"
       height="21.477867"
       x="254.12239"
       y="-27.122231"
       rx="7.3787601e-007"
       ry="1.5175629"
       transform="matrix(0.72456967,0.68920157,0.67734832,-0.73566246,0,0)" />
    <rect
       style="fill:#ffffff;fill-opacity:1;stroke:#ffffff;stroke-width:0.25156009;stroke-miterlimit:4;stroke-dasharray:none;stroke-opacity:1"
       id="rect4583-2-3-7-2-8-4"
       width="0.1102038"
       height="18.961063"
       x="248.09117"
       y="-28.792122"
       rx="6.5141086e-007"
       ry="1.3397332"
       transform="matrix(0.72456967,0.68920157,0.67734832,-0.73566246,0,0)" />
    <rect
       style="fill:#ffffff;fill-opacity:1;stroke:#ffffff;stroke-width:0.21190847;stroke-miterlimit:4;stroke-dasharray:none;stroke-opacity:1"
       id="rect4583-2-3-7-4-9-0-2"
       width="0.092833161"
       height="15.972371"
       x="242.11516"
       y="-29.866402"
       rx="5.4873362e-007"
       ry="1.1285605"
       transform="matrix(0.72456967,0.68920157,0.67734832,-0.73566246,0,0)" />
    <rect
       style="fill:#ffffff;fill-opacity:1;stroke:#ffffff;stroke-width:0.16839924;stroke-miterlimit:4;stroke-dasharray:none;stroke-opacity:1"
       id="rect4583-2-3-7-4-4-3-5-1"
       width="0.073772579"
       height="12.692908"
       x="235.52394"
       y="-30.538536"
       rx="4.3606718e-007"
       ry="0.89684355"
       transform="matrix(0.72456967,0.68920157,0.67734832,-0.73566246,0,0)" />
    <rect
       style="fill:#ffffff;fill-opacity:1;stroke:#ffffff;stroke-width:0.12144336;stroke-miterlimit:4;stroke-dasharray:none;stroke-opacity:1"
       id="rect4583-2-3-7-4-4-8-9-5-6"
       width="0.053202074"
       height="9.1536608"
       x="228.53014"
       y="-30.861237"
       rx="3.1447564e-007"
       ry="0.64677072"
       transform="matrix(0.72456967,0.68920157,0.67734832,-0.73566246,0,0)" />
    <rect
       style="fill:#ffffff;fill-opacity:1;stroke:#ffffff;stroke-width:0.07240054;stroke-miterlimit:4;stroke-dasharray:none;stroke-opacity:1"
       id="rect4583-2-3-7-4-4-8-8-1-0-8"
       width="0.03171733"
       height="5.4571118"
       x="221.61748"
       y="-30.555473"
       rx="1.8748007e-007"
       ry="0.38558346"
       transform="matrix(0.72456967,0.68920157,0.67734832,-0.73566246,0,0)" />
    <path
       style="fill:#000000;fill-opacity:1;stroke:none;stroke-width:16.06570816;stroke-miterlimit:4;stroke-dasharray:none;stroke-opacity:1"
       inkscape:transform-center-x="-5.248617"
       inkscape:transform-center-y="-0.99469936"
       d="m 209.01388,200.40463 c 1.05159,0.0787 2.09646,0.0201 3.12826,-0.0557 1.79304,-0.15153 3.50237,-0.54795 5.19924,-0.93934 4.49216,-1.08014 8.88478,-2.35277 13.43896,-3.31197 3.94903,-0.79866 8.07009,-1.21109 12.23498,-1.25767 2.43122,-0.0158 4.8745,0.12011 7.31267,0.20546 1.00349,-0.0272 1.75233,-0.77524 1.60859,-1.52834 -0.0984,-0.43707 -0.32279,-0.86125 -0.56486,-1.27173 -0.42056,-0.68917 -0.94047,-1.34503 -1.41864,-2.0145 -1.63472,-2.22272 -3.41887,-4.39281 -5.41585,-6.4552 -1.77175,-1.8205 -3.6665,-3.57535 -5.66469,-5.26156 -1.54822,-1.31209 -3.16369,-2.57885 -4.81047,-3.82076 -2.66647,-1.99481 -5.43832,-3.92376 -8.46579,-5.59448 -2.08755,-1.15042 -4.28774,-2.18971 -6.61662,-3.00117 -1.5637,-0.5381 -3.199,-1.0248 -4.88569,-1.10808 -0.76764,-0.0471 -1.52509,0.03 -2.2624,0.13512 -1.39381,0.23176 -2.69652,0.69311 -3.80376,1.33666 -1.06335,0.63099 -1.94128,1.42926 -2.58585,2.33332 -2.01062,2.66793 -3.54219,5.56619 -4.47652,8.60884 -0.91634,2.94868 -1.31246,6.02182 -1.15371,9.1145 0.11223,2.14023 0.50394,4.29084 1.19884,6.40462 0.39813,1.17285 0.85639,2.34224 1.48624,3.47057 0.58607,0.99345 1.45166,1.91257 2.56043,2.62861 1.04611,0.68617 2.3215,1.19026 3.658,1.34267 0.0989,0.0183 0.19845,0.0312 0.29866,0.04 z"
       id="path4566-2-7-4-4"
       inkscape:connector-curvature="0" />
    <path
       style="fill:#ffffff;stroke:#ffffff;stroke-width:0.24785195px;stroke-linecap:butt;stroke-linejoin:miter;stroke-opacity:1"
       d="m 252.10222,194.30717 -1.63509,-0.65476 -1.45061,-0.55816 -1.32573,-0.50333 -1.587,-0.55526 -1.78294,-0.59417 -1.9136,-0.62013 -1.7291,-0.52352 -1.9904,-0.5754 -1.80019,-0.50765 -2.19212,-0.5855 -2.2574,-0.5985 -2.32849,-0.58254 -2.19787,-0.55661 -1.94229,-0.47595 -2.01337,-0.46004 -1.75785,-0.37927 -1.70404,-0.30854 -2.36294,-0.40952 -2.23233,-0.38348 -2.23233,-0.38349 -2.10169,-0.35758 -2.69529,-0.44556 -3.16967,-0.45045 -2.57606,-0.36252 -2.11311,-0.30032 -1.06233,-0.12108 -0.003,-0.3303 1.1987,0.11817 1.78085,0.26387 1.65593,0.20905 2.51082,0.34895 1.9172,0.26098 2.69531,0.44555 2.68953,0.47446 1.84042,0.30566 2.55904,0.44843 2.82018,0.50035 0.71849,0.14276 2.73187,0.60284 2.78571,0.67341 2.9106,0.72825 2.00188,0.51782 2.19209,0.58549 1.80595,0.47873 2.18636,0.61436 1.85975,0.54946 1.53318,0.48456 1.84827,0.60719 1.71188,0.61005 2.15188,0.78743 1.8253,0.72256 1.43911,0.61581 z"
       id="path4569-3-8-8-9"
       inkscape:connector-curvature="0" />
    <rect
       style="fill:#ffffff;fill-opacity:1;stroke:#ffffff;stroke-width:0.27119839;stroke-miterlimit:4;stroke-dasharray:none;stroke-opacity:1"
       id="rect4583-5-9-6-3"
       width="0.11877722"
       height="20.446402"
       x="-98.567436"
       y="-273.90189"
       rx="7.0208796e-007"
       ry="1.444683"
       transform="matrix(-0.88900973,0.45788831,-0.44356046,-0.89624445,0,0)" />
    <rect
       style="fill:#ffffff;fill-opacity:1;stroke:#ffffff;stroke-width:0.2470718;stroke-miterlimit:4;stroke-dasharray:none;stroke-opacity:1"
       id="rect4583-1-9-4-8-2"
       width="0.10821045"
       height="18.627434"
       x="-104.64421"
       y="-276.3483"
       rx="6.3962818e-007"
       ry="1.3161597"
       transform="matrix(-0.88900973,0.45788831,-0.4435605,-0.89624443,0,0)" />
    <rect
       style="fill:#ffffff;fill-opacity:1;stroke:#ffffff;stroke-width:0.21289144;stroke-miterlimit:4;stroke-dasharray:none;stroke-opacity:1"
       id="rect4583-1-4-5-7-5-7"
       width="0.093240432"
       height="16.05048"
       x="-110.60645"
       y="-277.91135"
       rx="5.5114089e-007"
       ry="1.1340797"
       transform="matrix(-0.88900973,0.45788831,-0.4435605,-0.89624443,0,0)" />
    <rect
       style="fill:#ffffff;fill-opacity:1;stroke:#ffffff;stroke-width:0.1728957;stroke-miterlimit:4;stroke-dasharray:none;stroke-opacity:1"
       id="rect4583-1-4-9-9-8-2-0"
       width="0.075723417"
       height="13.035089"
       x="-116.50416"
       y="-279.26178"
       rx="4.4759847e-007"
       ry="0.92102134"
       transform="matrix(-0.88900973,0.45788831,-0.4435605,-0.89624443,0,0)" />
    <rect
       style="fill:#ffffff;fill-opacity:1;stroke:#ffffff;stroke-width:0.13144559;stroke-miterlimit:4;stroke-dasharray:none;stroke-opacity:1"
       id="rect4583-1-4-9-2-7-9-8-5"
       width="0.057569448"
       height="9.9100475"
       x="-122.43151"
       y="-280.91626"
       rx="3.4029091e-007"
       ry="0.70021504"
       transform="matrix(-0.88900973,0.45788831,-0.4435605,-0.89624443,0,0)" />
    <rect
       style="fill:#ffffff;fill-opacity:1;stroke:#ffffff;stroke-width:0.09144985;stroke-miterlimit:4;stroke-dasharray:none;stroke-opacity:1"
       id="rect4583-1-4-9-2-3-5-2-7-7"
       width="0.04005244"
       height="6.89466"
       x="-128.45161"
       y="-283.19717"
       rx="2.3674858e-007"
       ry="0.48715642"
       transform="matrix(-0.88900973,0.45788831,-0.4435605,-0.89624443,0,0)" />
    <rect
       style="fill:#ffffff;fill-opacity:1;stroke:#ffffff;stroke-width:0.05727167;stroke-miterlimit:4;stroke-dasharray:none;stroke-opacity:1"
       id="rect4583-1-4-9-2-3-2-6-7-4-7"
       width="0.025083371"
       height="4.3178711"
       x="-134.0278"
       y="-286.00351"
       rx="1.4826692e-007"
       ry="0.30508813"
       transform="matrix(-0.88900973,0.45788831,-0.4435605,-0.89624443,0,0)" />
    <rect
       style="fill:#ffffff;fill-opacity:1;stroke:#ffffff;stroke-width:0.29955944;stroke-miterlimit:4;stroke-dasharray:none;stroke-opacity:1"
       id="rect4583-2-0-0-4-3"
       width="0.13123143"
       height="22.578966"
       x="-270.3508"
       y="-28.745155"
       rx="7.7570445e-007"
       ry="1.5953635"
       transform="matrix(-0.72456967,-0.68920157,-0.67734832,0.73566246,0,0)" />
    <rect
       style="fill:#ffffff;fill-opacity:1;stroke:#ffffff;stroke-width:0.28495097;stroke-miterlimit:4;stroke-dasharray:none;stroke-opacity:1"
       id="rect4583-2-3-5-8-9-1"
       width="0.12483172"
       height="21.477867"
       x="-276.56448"
       y="-31.720406"
       rx="7.3787601e-007"
       ry="1.5175629"
       transform="matrix(-0.72456967,-0.68920157,-0.67734832,0.73566246,0,0)" />
    <rect
       style="fill:#ffffff;fill-opacity:1;stroke:#ffffff;stroke-width:0.25156009;stroke-miterlimit:4;stroke-dasharray:none;stroke-opacity:1"
       id="rect4583-2-3-7-8-4-8-0"
       width="0.1102038"
       height="18.961063"
       x="-282.59567"
       y="-33.390343"
       rx="6.5141086e-007"
       ry="1.3397332"
       transform="matrix(-0.72456967,-0.68920157,-0.67734832,0.73566246,0,0)" />
    <rect
       style="fill:#ffffff;fill-opacity:1;stroke:#ffffff;stroke-width:0.21190847;stroke-miterlimit:4;stroke-dasharray:none;stroke-opacity:1"
       id="rect4583-2-3-7-4-5-1-3-2"
       width="0.092833161"
       height="15.972371"
       x="-288.57169"
       y="-34.464622"
       rx="5.4873362e-007"
       ry="1.1285605"
       transform="matrix(-0.72456967,-0.68920157,-0.67734832,0.73566246,0,0)" />
    <rect
       style="fill:#ffffff;fill-opacity:1;stroke:#ffffff;stroke-width:0.16839924;stroke-miterlimit:4;stroke-dasharray:none;stroke-opacity:1"
       id="rect4583-2-3-7-4-4-80-0-4-1"
       width="0.073772579"
       height="12.692908"
       x="-295.1629"
       y="-35.136742"
       rx="4.3606718e-007"
       ry="0.89684355"
       transform="matrix(-0.72456967,-0.68920157,-0.67734832,0.73566246,0,0)" />
    <rect
       style="fill:#ffffff;fill-opacity:1;stroke:#ffffff;stroke-width:0.12144336;stroke-miterlimit:4;stroke-dasharray:none;stroke-opacity:1"
       id="rect4583-2-3-7-4-4-8-6-6-1-6"
       width="0.053202074"
       height="9.1536608"
       x="-302.15668"
       y="-35.459496"
       rx="3.1447564e-007"
       ry="0.64677072"
       transform="matrix(-0.72456967,-0.68920157,-0.67734832,0.73566246,0,0)" />
    <rect
       style="fill:#ffffff;fill-opacity:1;stroke:#ffffff;stroke-width:0.07240054;stroke-miterlimit:4;stroke-dasharray:none;stroke-opacity:1"
       id="rect4583-2-3-7-4-4-8-8-9-3-2-7"
       width="0.03171733"
       height="5.4571118"
       x="-309.06934"
       y="-35.153679"
       rx="1.8748007e-007"
       ry="0.38558346"
       transform="matrix(-0.72456967,-0.68920157,-0.67734832,0.73566246,0,0)" />
    <rect
       style="fill:#ffffff;fill-opacity:1;stroke:#ffffff;stroke-width:0.51389736;stroke-miterlimit:4;stroke-dasharray:none;stroke-opacity:1"
       id="rect4872-6-96-3-9"
       width="0.0092956638"
       height="12.545598"
       x="221.1283"
       y="-144.46475"
       rx="2.1092189e-010"
       ry="0.46982944"
       transform="matrix(0.26731934,0.963608,-0.97378237,0.22748162,0,0)" />
    <rect
       style="fill:#ffffff;fill-opacity:1;stroke:#ffffff;stroke-width:0.51389736;stroke-miterlimit:4;stroke-dasharray:none;stroke-opacity:1"
       id="rect4872-6-2-4-2-3"
       width="0.0092956629"
       height="12.545598"
       x="215.93088"
       y="-146.53098"
       rx="2.1092189e-010"
       ry="0.46982944"
       transform="matrix(0.26731934,0.963608,-0.97378237,0.22748162,0,0)" />
    <rect
       style="fill:#ffffff;fill-opacity:1;stroke:#ffffff;stroke-width:0.51885128;stroke-miterlimit:4;stroke-dasharray:none;stroke-opacity:1"
       id="rect4872-6-9-5-9-6"
       width="0.0092919823"
       height="12.793711"
       x="225.71033"
       y="-141.2123"
       rx="2.1083837e-010"
       ry="0.47912109"
       transform="matrix(0.27302907,0.96200578,-0.97490736,0.22261095,0,0)" />
    <rect
       style="fill:#ffffff;fill-opacity:1;stroke:#ffffff;stroke-width:0.51885128;stroke-miterlimit:4;stroke-dasharray:none;stroke-opacity:1"
       id="rect4872-6-9-0-36-4-2"
       width="0.0092919823"
       height="12.793711"
       x="230.92407"
       y="-139.28152"
       rx="2.1083837e-010"
       ry="0.47912109"
       transform="matrix(0.27302907,0.96200578,-0.97490736,0.22261095,0,0)" />
    <rect
       style="fill:#ffffff;fill-opacity:1;stroke:#ffffff;stroke-width:0.51885128;stroke-miterlimit:4;stroke-dasharray:none;stroke-opacity:1"
       id="rect4872-6-9-0-3-7-3-7"
       width="0.0092919823"
       height="12.793711"
       x="236.55701"
       y="-137.09891"
       rx="2.1083837e-010"
       ry="0.47912109"
       transform="matrix(0.27302907,0.96200578,-0.97490736,0.22261095,0,0)" />
  </g>
</svg>
