<?xml version="1.0" encoding="UTF-8" standalone="no"?>
<!-- Created with Inkscape (http://www.inkscape.org/) -->

<svg
   xmlns:dc="http://purl.org/dc/elements/1.1/"
   xmlns:cc="http://creativecommons.org/ns#"
   xmlns:rdf="http://www.w3.org/1999/02/22-rdf-syntax-ns#"
   xmlns:svg="http://www.w3.org/2000/svg"
   xmlns="http://www.w3.org/2000/svg"
   xmlns:sodipodi="http://sodipodi.sourceforge.net/DTD/sodipodi-0.dtd"
   xmlns:inkscape="http://www.inkscape.org/namespaces/inkscape"
   width="2048"
   height="1024"
   viewBox="0 0 541.86665 270.93334"
   version="1.1"
   id="svg8"
   inkscape:version="0.92.0 r15299"
   sodipodi:docname="DashboardTree.svg">
  <defs
     id="defs2" />
  <sodipodi:namedview
     id="base"
     pagecolor="#ffffff"
     bordercolor="#666666"
     borderopacity="1.0"
     inkscape:pageopacity="0.0"
     inkscape:pageshadow="2"
     inkscape:zoom="0.7"
     inkscape:cx="845.61016"
     inkscape:cy="597.85226"
     inkscape:document-units="mm"
     inkscape:current-layer="layer1"
     showgrid="true"
     units="px"
     inkscape:window-width="2400"
     inkscape:window-height="1271"
     inkscape:window-x="2391"
     inkscape:window-y="-9"
     inkscape:window-maximized="1">
    <inkscape:grid
       type="xygrid"
       id="grid4487"
       enabled="false"
       empspacing="2" />
    <inkscape:grid
       type="xygrid"
       id="grid4489"
       enabled="false" />
  </sodipodi:namedview>
  <metadata
     id="metadata5">
    <rdf:RDF>
      <cc:Work
         rdf:about="">
        <dc:format>image/svg+xml</dc:format>
        <dc:type
           rdf:resource="http://purl.org/dc/dcmitype/StillImage" />
        <dc:title></dc:title>
      </cc:Work>
    </rdf:RDF>
  </metadata>
  <g
     inkscape:label="Layer 1"
     inkscape:groupmode="layer"
     id="layer1"
     transform="translate(0,-26.06665)">
    <rect
       style="fill:#000000;fill-opacity:1;stroke:none;stroke-width:16.97263527;stroke-miterlimit:4;stroke-dasharray:none;stroke-opacity:1"
       id="rect4491"
       width="541.86664"
       height="270.93332"
       x="1.4241537e-005"
       y="-244.86667"
       rx="0.00016704707"
       ry="3.1278167" />
    <rect
       style="fill:#ffffff;fill-opacity:1;stroke:none;stroke-width:16.24630165;stroke-miterlimit:4;stroke-dasharray:none;stroke-opacity:1"
       id="rect4493"
       width="290.51251"
       height="178.59375"
       x="125.67708"
       y="-152.5271"
       rx="0.00033966237"
       ry="4.0601573" />
    <rect
       style="fill:#000000;fill-opacity:1;stroke:none;stroke-width:8.96421432;stroke-miterlimit:4;stroke-dasharray:none;stroke-opacity:1"
       id="rect4495"
       width="23.8125"
       height="12.7"
       x="259.02707"
       y="296.99997"
       rx="0.00027294227"
       ry="4.0601635" />
    <path
       style="fill:#000000;stroke:#000000;stroke-width:0.26458332px;stroke-linecap:butt;stroke-linejoin:miter;stroke-opacity:1"
       d="m 259.02707,296.99995 2.53245,-7.55949 1.70089,-12.66221 0.18899,-16.25297 -12.47321,-10.96131 -6.99256,0.56696 -12.28423,2.07887 -12.28422,2.26786 -3.2128,-2.64584 -3.96875,-12.09523 -11.33929,-2.45685 -9.26041,-9.82738 -8.12649,-3.77976 -12.6622,1.32292 -8.50447,-5.48066 -15.11905,-1.88988 -10.01636,-6.23661 -3.02381,-4.91369 -4.53572,-0.56696 -3.40178,1.88988 3.21279,-2.83482 5.10268,0.37798 1.13393,-4.53572 4.53571,-6.42559 -2.83482,-7.37054 2.64584,-4.34673 -1.7009,-2.83482 2.64584,2.45685 -1.88988,4.91369 3.21279,6.80357 -5.48065,7.74851 -0.37798,4.15774 2.64584,4.34673 9.4494,5.66964 6.23661,0.75595 1.88988,-5.48065 -2.45685,-3.77977 -2.64583,1.13393 3.40179,-2.83482 3.59077,5.29167 -1.88988,5.85863 6.42559,0.56696 7.9375,3.96875 12.28423,-1.13393 10.20536,4.72471 2.26785,-4.9137 -2.45684,-6.99255 3.40179,-6.04762 3.40178,-3.2128 1.88988,-3.2128 -0.37797,4.15774 -3.2128,3.2128 3.59077,0.37797 3.96875,-1.5119 3.77976,2.45685 -3.96875,-0.94495 -2.83482,0.94495 -4.53571,0.18898 -2.26786,4.34673 2.07887,5.85863 -2.64583,6.61458 7.74851,7.55953 12.47321,2.26785 3.59078,11.33929 0.94494,-1.13393 1.70089,-0.18899 h 1.70089 l 0.94494,1.70089 0.18899,1.32292 16.63095,-3.21279 9.6384,-1.13393 -4.15774,-3.2128 -5.10268,-0.37798 -3.96875,-1.5119 -1.32292,-2.64584 -3.77976,-4.34672 -5.10268,-10.96131 -1.70089,-9.44941 -4.91369,-9.4494 -5.85863,-5.66964 -2.26786,-5.66965 -0.56696,-4.34672 -3.59078,-2.45685 -7.55952,-1.88988 -2.26786,0.75595 -2.45684,1.88989 -1.88988,2.64583 -0.94494,2.45684 0.56696,2.07887 -1.88988,-2.07887 1.13393,-3.02381 2.64583,-3.59077 2.07887,-1.70089 -3.59077,-2.26786 -4.15774,-5.29167 -4.91369,1.7009 -8.12649,1.5119 -3.96875,-4.34672 -5.29167,-7.37054 -5.85863,-1.51191 -3.2128,1.51191 -2.07886,2.45684 -3.96875,-1.13392 -4.9137,-5.10268 -1.5119,-7.55953 -2.45685,-4.15773 -1.88988,-0.75596 -3.02381,0.37798 3.96875,-1.70089 2.64584,0.94494 2.83482,5.29166 1.32292,6.80358 3.77976,3.77976 2.26785,0.75595 1.32292,-0.94494 5.10268,-2.83482 1.88988,-3.40179 2.07887,-3.77976 2.64583,-3.2128 -1.70089,-2.83482 -0.94494,-2.64583 1.70089,-2.83482 -0.18899,3.40178 0.94495,2.07887 1.70089,2.26786 2.83482,-1.70089 3.40179,-0.37798 2.64583,1.88988 2.07887,2.07887 -2.26786,-0.94494 -2.64583,-1.32292 h -3.02381 l -1.88988,1.32292 -3.96875,4.53571 -3.2128,6.4256 4.91369,1.5119 5.29167,7.37054 2.83482,3.40178 7.9375,-1.5119 6.2366,-2.26786 5.48066,6.99256 7.9375,2.26786 1.70089,-3.59077 3.59078,-1.51191 -2.07887,2.26786 -1.32292,3.02381 3.2128,0.94494 6.04762,3.96875 0.75595,5.29166 2.07887,4.91369 5.29166,4.15774 5.48066,10.01637 3.77976,-2.64583 3.02381,-5.66964 5.48066,-1.32292 1.70089,-5.10268 -1.13393,-5.10268 -3.02381,-4.53571 -3.2128,-6.04762 -0.75595,-6.23661 -3.59077,-5.29167 -3.77977,-5.48065 -3.0238,0.18899 -4.15774,-1.51191 -4.53572,1.32292 -1.5119,2.45685 0.37797,-3.59078 5.85864,-2.07887 4.7247,1.51191 4.15774,-0.37798 2.26785,3.40179 5.29167,8.69345 2.45684,-5.48066 -0.94494,-2.45684 -2.07886,-0.94494 3.0238,-0.18899 1.88989,3.77976 -3.2128,7.37054 0.75595,5.29166 2.83482,5.29167 2.83482,4.34673 1.51191,6.04762 -1.51191,5.66964 -6.04762,3.2128 -2.45684,4.34672 -5.48066,4.72471 1.88989,7.9375 4.15773,9.82737 4.15774,3.96875 1.13393,0.75596 5.48065,0.56696 7.55953,4.53572 3.40178,-0.18899 4.53572,-1.32292 0.75595,-6.61458 -0.94494,-6.61458 0.94494,-10.01637 -3.2128,-6.99256 -3.96875,-4.91369 -4.91369,-5.85863 1.13393,-5.29167 1.70089,-4.53571 2.45685,-4.34673 2.83482,-8.12649 -3.96875,0.56697 -3.02381,2.07886 -1.13393,2.64584 -0.18899,-3.59078 3.59078,-2.64583 5.29167,-1.13393 -2.83483,-2.45684 -4.7247,-1.7009 -3.40178,1.13393 -1.32292,2.26786 0.56696,-3.96875 4.15774,-1.32292 -2.07887,-2.26785 -2.45684,-3.02381 -0.37798,-2.26786 1.51191,-1.70089 -0.18899,2.26785 0.94494,1.88988 1.88988,2.26786 2.64583,2.64583 3.77976,1.51191 3.02381,2.26786 1.70089,-3.59078 3.4018,-4.91369 1.13392,-4.53571 -1.7009,-3.59078 -5.66963,-4.91369 -5.85864,-4.7247 -6.61458,-7.55952 -6.99256,-2.83482 -3.40178,-2.83482 1.13392,-3.02381 0.37798,2.64583 2.26786,1.88988 7.74851,3.2128 6.80357,7.37053 3.2128,-3.02381 -0.75595,-2.45684 2.45684,2.64583 -3.77976,3.77976 4.15774,3.40179 6.0476,4.7247 1.13396,-3.40178 1.88986,-2.83483 3.59077,-1.88988 4.34673,-0.56696 -4.15774,1.5119 -2.83483,2.26786 -1.32291,2.07887 -1.13393,3.96875 1.8899,3.77976 3.21278,-1.13393 5.29166,-1.13392 6.23663,-2.07887 2.07886,-5.48066 3.21281,-3.59077 5.10267,-2.64584 6.80358,-0.94494 3.40177,1.7009 -3.59077,-0.56697 -6.42559,1.13393 -5.10267,2.83482 -2.45687,3.02381 -1.51188,6.04762 -4.15774,1.32292 -5.29167,1.70089 -2.45684,0.75595 -4.53573,1.88988 -1.13392,3.40179 -3.4018,4.7247 -1.32292,3.40179 -1.70088,4.91369 -2.64583,8.12649 -2.45685,4.91369 -1.13393,3.77976 -0.56696,3.02381 3.96875,4.53571 4.5357,5.10268 4.15774,8.12649 -0.75594,12.85119 2.45684,-1.13393 3.59077,-2.64583 3.96875,-3.96875 3.21281,-4.91369 0.94493,-6.61459 2.26785,-7.74851 4.53573,-6.61458 1.32291,-8.88244 -3.02381,-1.13393 h -3.77976 l -2.26785,-1.32292 -2.64583,1.32292 3.02381,-2.45685 2.26785,1.13393 h 3.77976 l 3.21281,0.94494 3.02379,-3.02381 2.64583,-4.34672 3.96875,-2.83482 10.20538,-4.34673 4.5357,-5.29167 1.51191,-4.91369 4.15774,-6.42559 -0.56698,-5.85863 -2.64583,-8.50447 3.02382,-3.02381 4.72469,-5.48065 3.59079,-3.02381 3.77976,-3.77976 6.2366,-2.45685 6.80357,-2.45684 -6.42559,3.40178 -6.2366,3.02381 -2.83482,2.83482 -4.15775,3.59078 -6.2366,7.55952 2.26785,8.12649 1.88987,-2.45685 3.21281,-2.83482 5.10267,-1.88988 4.91369,-0.37798 3.4018,-1.13392 5.48066,0.56696 -5.48066,0.18899 -3.4018,1.32292 -4.72469,0.56696 -4.7247,1.88988 -3.2128,3.02381 -1.8899,2.64583 0.37799,4.72471 -4.72469,6.99255 -1.32292,4.9137 -4.53573,5.85863 -10.96131,4.7247 -3.77976,3.02381 -1.70087,3.77976 -2.64584,3.2128 -1.32291,9.82738 -4.72472,7.55952 -1.32292,7.18155 v 5.48065 l -4.72469,8.69346 -2.64583,3.21279 -3.21281,2.83483 -3.59077,1.88988 -2.83482,0.94494 0.37798,6.2366 5.66962,-0.94494 7.37055,-3.40178 11.71726,-1.51191 6.99257,-5.29166 3.40177,-3.96875 -0.75594,-2.45685 -2.45684,-1.70089 3.96875,0.94494 1.13393,2.83482 2.83482,-2.45684 6.04761,-3.02381 6.2366,-3.96875 -0.75594,-4.91369 -3.4018,-4.72471 -3.21279,-5.66964 -4.91368,-3.59077 -4.15774,-1.32292 -3.21281,-2.07887 -0.75594,-2.45684 2.26785,2.45684 2.45684,1.32292 4.34673,1.13393 5.29167,3.77976 3.59077,6.42559 3.21281,4.34673 2.64583,-2.26786 1.32292,-3.2128 1.32291,-4.34672 -0.75596,-3.59078 2.45684,-3.21279 1.32291,-4.34673 -0.75594,-3.59077 1.7009,-3.40179 3.77976,-1.88988 5.10268,-0.56696 4.15774,2.45684 -4.34674,-1.13393 -4.15774,0.75596 -3.02379,1.88988 -1.32292,2.64583 0.75595,2.83482 -1.51191,5.48066 -1.88987,2.45684 0.94493,3.77976 -1.32291,4.91369 -1.51191,2.83482 -3.59077,3.77977 0.18899,2.64583 4.7247,-1.13393 5.29166,-3.02381 6.61459,-2.26786 5.66965,-4.34672 7.18153,-2.64583 9.6384,-1.13393 3.77976,-1.88988 1.88989,-2.45685 1.51191,-3.59077 -0.18899,-5.10268 0.56694,-4.91369 -1.70087,-3.96875 -3.02382,-4.7247 -4.53572,-1.7009 -3.96875,-3.40178 -4.72469,-3.40179 -1.88989,-3.59077 1.13392,-3.96875 3.21281,-3.59078 0.56697,-4.7247 -1.32291,-3.59077 2.26785,3.40178 -0.37799,5.29167 -3.02381,3.77976 -0.75594,3.40179 1.88989,3.21279 3.21278,1.88989 4.34673,3.59077 4.91369,1.88988 4.34673,6.23661 1.51191,3.77976 2.83482,2.64583 3.02379,-1.88988 2.07889,-2.64583 1.70087,-4.15774 0.18899,-2.26786 3.5908,-1.70089 3.40177,-3.96875 2.45684,-4.53571 0.56698,-4.53572 -1.32292,-5.85863 1.51191,-3.77976 2.8348,-1.70089 -1.88987,2.26785 -1.32291,3.96875 1.7009,5.10268 -0.56698,4.91369 -2.83482,5.10268 -3.40178,4.15774 -3.02381,1.70089 -0.37799,1.70089 -1.70087,4.72471 -1.88989,2.64583 -3.40178,2.26786 -2.26788,2.45684 -1.32291,4.72471 -1.70088,3.59077 -1.88989,2.64583 -4.91368,3.02381 -10.96132,1.51191 -5.85864,2.45684 -3.96875,3.40179 -9.26042,3.77976 -3.96875,2.83482 -6.42559,2.26786 -5.85861,3.59077 -4.91371,2.64584 -2.64584,2.45684 -3.40177,3.40179 -6.80358,6.61458 -2.07885,1.5119 -14.17413,2.83483 -7.55952,3.96875 0.56698,2.83482 2.45684,1.70089 3.59077,1.13393 6.2366,0.75595 7.55954,-0.75595 7.18153,-2.83482 6.04764,-0.56697 5.48065,-2.45684 4.5357,-4.72471 6.61459,-3.40178 5.48066,-1.51191 6.99256,0.75596 7.9375,-2.07887 6.99254,-3.59078 5.48066,0.18899 -0.37796,-3.02381 -1.5119,-3.21279 -3.5908,-1.88989 -2.8348,-2.45684 4.15772,2.07887 3.77978,1.70089 1.88987,3.77976 0.75597,3.2128 6.61458,-1.70089 6.61458,-3.77976 3.21279,-4.72471 5.85864,-3.96875 5.85861,-1.32291 6.99257,0.56696 4.91368,1.88988 5.85865,1.5119 3.59076,3.2128 3.59077,4.34673 -4.72469,-3.59078 -3.02382,-2.45684 -6.61458,-1.88988 -3.77976,-1.13393 -3.02382,-0.18899 -3.02379,-0.18898 -5.10267,1.32291 -4.34674,3.2128 -3.59076,6.23661 -7.37055,3.96875 -7.9375,2.07887 1.32291,3.77976 3.02382,2.83482 4.91368,1.70089 6.42559,0.37798 7.9375,-0.56697 1.70091,-1.88988 1.13392,-3.21279 3.02382,-1.32292 1.7009,-2.45685 -0.94496,3.77977 -2.07886,1.13392 -1.32292,3.02381 -1.7009,2.07887 3.77976,0.56697 3.59079,-0.56697 3.21279,2.64584 -3.21279,-1.7009 -2.83482,0.56697 -4.91371,-0.37798 h -5.66962 l -3.21281,0.56697 -7.18154,-0.18899 -5.29166,-1.32292 -5.29167,-3.2128 -2.45687,-1.32292 -0.94493,1.32292 -1.7009,0.94494 -2.26785,-0.18898 -0.75594,-1.32292 -0.18899,-1.51191 -2.83483,0.56697 -4.53572,1.13393 -1.13393,2.26785 0.75597,2.83483 -0.94496,3.21279 2.07888,2.83482 2.45685,1.13393 -3.40178,-0.37797 -3.21281,-3.40179 0.94494,-3.02381 -0.94494,-2.64583 -1.88989,-0.75595 -7.18153,-0.75596 -4.15774,1.88988 -4.7247,2.64584 -2.26787,3.59077 -7.9375,4.34673 -8.12649,1.5119 -6.42559,2.83482 -7.55952,1.13393 -3.21281,0.56697 -3.02379,1.88988 -1.7009,2.83482 -3.40177,2.26785 -1.51191,2.26786 -0.18899,6.61459 1.7009,13.79613 1.81424,6.61455 z"
       id="path4497"
       inkscape:connector-curvature="0" />
  </g>
</svg>
